<?xml version="1.0" standalone="no"?><!DOCTYPE svg PUBLIC "-//W3C//DTD SVG 1.1//EN" "http://www.w3.org/Graphics/SVG/1.1/DTD/svg11.dtd"><svg t="1744034940496" class="icon" viewBox="0 0 1024 1024" version="1.1" xmlns="http://www.w3.org/2000/svg" p-id="2603" xmlns:xlink="http://www.w3.org/1999/xlink" width="200" height="200"><path d="M239.8 138.9c21.2 0 38.5-17.2 38.5-38.5 0-21.2-17.2-38.5-38.5-38.5H94.4C76.5 62 62 76.5 62 94.4v834c0 17.9 14.5 32.4 32.4 32.4h145.4c21.2 0 38.5-17.2 38.5-38.5s-17.2-38.5-38.5-38.5H129.5v-745l110.3 0.1zM929.6 63.1H784.2c-21.2 0-38.5 17.2-38.5 38.5 0 21.2 17.2 38.5 38.5 38.5h110.3v745H784.2c-21.2 0-38.5 17.2-38.5 38.5S763 962 784.2 962h145.3c17.9 0 32.4-14.5 32.4-32.4v-834c0.1-17.9-14.4-32.5-32.3-32.5z" p-id="2604"></path></svg>